<svg width="32" height="32" viewBox="0 0 32 32" fill="none" xmlns="http://www.w3.org/2000/svg">
  <!-- 圆形背景 -->
  <circle cx="16" cy="16" r="16" fill="#36CFC9"/>
  
  <!-- 鲸鱼主体 - 流线型设计 -->
  <path d="M7 17.5C7 17.5 9.5 14.5 15 14.5C20.5 14.5 23 17.5 23 17.5C23 17.5 20.5 20.5 15 20.5C9.5 20.5 7 17.5 7 17.5Z" fill="white" opacity="0.95"/>
  
  <!-- 鲸鱼尾巴 - 优雅的V型 -->
  <path d="M5 16C5 16 5.8 17.5 7 17.5C7 17.5 5.8 19 5 19" stroke="white" stroke-width="1.8" stroke-linecap="round" stroke-linejoin="round" opacity="0.9"/>
  
  <!-- 鲸鱼眼睛 -->
  <circle cx="12" cy="17" r="1.3" fill="#36CFC9"/>
  
  <!-- 喷水效果 - 科技感点缀 -->
  <circle cx="21" cy="12" r="0.8" fill="white" opacity="0.8"/>
  <circle cx="22.5" cy="11" r="0.6" fill="white" opacity="0.6"/>
  <circle cx="19.8" cy="11.5" r="0.5" fill="white" opacity="0.5"/>
  
  <!-- 科技线条装饰 -->
  <path d="M10 23C11.5 22.5 13 22.5 14.5 23" stroke="white" stroke-width="0.8" stroke-linecap="round" opacity="0.4"/>
</svg>