<svg width="32" height="32" viewBox="0 0 32 32" fill="none" xmlns="http://www.w3.org/2000/svg">
  <!-- 背景圆形 -->
  <circle cx="16" cy="16" r="16" fill="#10B981"/>
  
  <!-- 鲸鱼主体 -->
  <path d="M8 18C8 18 10 14 16 14C22 14 24 18 24 18C24 18 22 22 16 22C10 22 8 18 8 18Z" fill="white"/>
  
  <!-- 鲸鱼尾巴 -->
  <path d="M6 16L8 18L8 16L8 14L6 16Z" fill="white"/>
  
  <!-- 鲸鱼眼睛 -->
  <circle cx="13" cy="16" r="1.5" fill="#10B981"/>
  
  <!-- 招聘元素 - 简化的人形图标 -->
  <circle cx="20" cy="12" r="1.5" fill="white"/>
  <path d="M18.5 15.5C18.5 15.5 19.5 15 20 15C20.5 15 21.5 15.5 21.5 15.5L21.5 18.5L18.5 18.5L18.5 15.5Z" fill="white"/>
</svg>