<svg width="100" height="100" viewBox="0 0 100 100" fill="none" xmlns="http://www.w3.org/2000/svg">
<path d="M90.2499 68.355C89.2329 67.9675 88.1473 67.7922 87.0599 67.84C87.4854 65.9463 87.2141 63.9627 86.2958 62.2528C85.3775 60.5428 83.8736 59.2212 82.0599 58.53C80.6084 57.9816 79.0296 57.863 77.5124 58.1884C75.9952 58.5138 74.6039 59.2695 73.5049 60.365C75.1797 60.3827 76.8011 60.9569 78.1138 61.997C79.4265 63.0372 80.3562 64.4843 80.7563 66.1107C81.1565 67.7371 81.0045 69.4503 80.3243 70.9809C79.6441 72.5114 78.4742 73.7723 76.9989 74.5651C75.5235 75.3579 73.8264 75.6377 72.1747 75.3603C70.5229 75.083 69.0103 74.2642 67.8748 73.033C66.7394 71.8018 66.0455 70.2279 65.9025 68.5592C65.7595 66.8904 66.1755 65.2215 67.0849 63.815C71.0001 57.7138 72.8655 50.5221 72.4096 43.2871C71.9536 36.052 69.2001 29.1514 64.5499 23.59C59.8989 18.0268 53.5952 14.0916 46.5546 12.3562C39.5141 10.6208 32.1036 11.1756 25.3999 13.94C18.6965 16.7028 13.0498 21.5329 9.28178 27.7272C5.51371 33.9216 3.82097 41.1569 4.44995 48.38C5.16526 56.6467 8.20117 64.5432 13.208 71.16C18.2148 77.7768 24.9889 82.8447 32.7499 85.78C40.6445 88.7686 49.2309 89.4286 57.4895 87.6817C65.7481 85.9348 73.3318 81.8544 79.3399 75.925C80.4735 74.8271 81.9229 74.1125 83.4841 73.882C85.0452 73.6514 86.6393 73.9165 88.0419 74.6398C89.4444 75.3632 90.5846 76.5083 91.3019 77.914C92.0191 79.3196 92.2773 80.9149 92.0399 82.475C93.2347 81.6314 94.1773 80.4786 94.767 79.1402C95.3566 77.8018 95.5709 76.3282 95.387 74.8772C95.203 73.4263 94.6278 72.0528 93.7228 70.9038C92.8179 69.7549 91.6174 68.8738 90.2499 68.355Z" fill="black"/>
</svg>
